<svg width="67" height="65" viewBox="0 0 67 65" fill="none" xmlns="http://www.w3.org/2000/svg">
<g filter="url(#filter0_d_629_176)">
<path d="M45.5098 37.4062V47.25L46.4941 51.1875L49.4473 52.1719L48.4629 56.1094H43.541L41.5723 47.25V41.3438L45.5098 37.4062Z" fill="#DBDBDB"/>
<path d="M17.75 55.125H12.918C11.9152 55.125 10.9322 54.8457 10.0791 54.3185C9.22611 53.7912 8.53678 53.0369 8.08838 52.1399C5.52768 47.0207 4.5021 41.2702 5.13525 35.5815L5.15125 35.4375C5.42687 35.547 5.69512 35.6688 5.95844 35.7993C7.16854 36.402 8.25461 37.2268 9.16012 38.2307C10.2657 39.455 11.076 40.9165 11.5288 42.5029C11.6906 43.0681 11.968 43.5937 12.3436 44.0461C12.7191 44.4985 13.1846 44.868 13.7104 45.1311L14.0106 45.2812L15.9794 52.1719L16.57 53.1562L17.75 55.125Z" fill="#DBDBDB"/>
<path d="M16.57 53.1563H13.9023C12.8995 53.1563 11.9165 52.877 11.0635 52.3498C10.2105 51.8226 9.52113 51.0682 9.07273 50.1712C7.01105 46.049 5.93763 41.5034 5.9375 36.8944C5.9375 36.5302 5.94365 36.1648 5.95842 35.7993C7.16853 36.4021 8.2546 37.2269 9.1601 38.2307C10.2657 39.4551 11.076 40.9166 11.5288 42.5029C11.6905 43.0682 11.968 43.5937 12.3436 44.0462C12.7191 44.4986 13.1845 44.8681 13.7104 45.1312L14.0106 45.2813L15.9794 52.1719L16.57 53.1563Z" fill="#EAEAE8"/>
<path d="M57.3228 9.84375V14.7656L54.3696 16.7344L51.355 17.3373L49.4478 17.7188L49.177 18.6662L48.0746 22.525L47.8038 23.4724C47.7952 23.502 47.7866 23.5315 47.7805 23.5622C47.7007 23.8559 47.6476 24.1561 47.6217 24.4593C47.5963 24.7519 47.5955 25.0462 47.6193 25.339C47.6316 25.4855 47.6488 25.6307 47.6734 25.7759C48.1887 28.8706 47.8056 32.0482 46.5697 34.9318L45.5103 37.4062L41.5728 41.3438V47.25L42.439 51.1481L45.5103 52.1719L44.5259 56.1094H39.604L36.6509 45.2812L34.9578 46.9744C33.4711 48.4613 31.7543 49.6987 29.8735 50.6387L28.7759 51.1875H29.8476C30.6076 51.1878 31.3363 51.4899 31.8737 52.0272C32.411 52.5646 32.7131 53.2933 32.7134 54.0533V56.1094H18.6823C18.3273 56.1095 17.9757 56.0396 17.6477 55.9038C17.3197 55.768 17.0216 55.5689 16.7705 55.3178C16.5195 55.0668 16.3204 54.7687 16.1846 54.4407C16.0487 54.1127 15.9789 53.7611 15.979 53.406V52.1719L14.0103 45.2812L15.1903 40.9525C16.3395 36.7401 18.8598 33.0309 22.3528 30.411L29.1905 25.2824C31.5067 23.5451 33.3868 21.2926 34.6821 18.7031L36.6509 16.7344L36.9622 15.8017V15.8004L39.604 7.875L44.5259 5.90625H49.4478L51.4165 9.84375H57.3228Z" fill="#EAEAE8"/>
<path d="M47.4785 11.8125C48.0222 11.8125 48.4629 11.3718 48.4629 10.8281C48.4629 10.2845 48.0222 9.84375 47.4785 9.84375C46.9349 9.84375 46.4941 10.2845 46.4941 10.8281C46.4941 11.3718 46.9349 11.8125 47.4785 11.8125Z" fill="#8F563B"/>
<path d="M32.0088 52.172H25.9451C25.684 52.172 25.4336 52.0683 25.249 51.8837C25.0644 51.6991 24.9607 51.4487 24.9607 51.1876C24.9607 50.9265 25.0644 50.6762 25.249 50.4916C25.4336 50.3069 25.684 50.2032 25.9451 50.2032C26.6133 50.2055 27.2688 50.0206 27.8373 49.6693C28.4058 49.3181 28.8645 48.8147 29.1615 48.216C29.5174 47.4999 29.6264 46.6861 29.4716 45.9015C29.2928 44.9949 28.9082 44.1415 28.3473 43.4072C27.7864 42.6729 27.0643 42.0772 26.2367 41.6662L25.3827 41.2405C25.1491 41.1238 24.9713 40.9191 24.8886 40.6714C24.8059 40.4237 24.8249 40.1533 24.9416 39.9196C25.0583 39.6859 25.263 39.5082 25.5107 39.4255C25.7584 39.3427 26.0289 39.3618 26.2625 39.4785L27.1165 39.9054C28.2131 40.4496 29.17 41.2386 29.9131 42.2115C30.6562 43.1845 31.1657 44.3152 31.4022 45.5164C31.5651 46.3381 31.5412 47.186 31.3323 47.9972C31.1233 48.8085 30.7347 49.5624 30.1951 50.2032L28.7764 51.1876H29.8481C30.2578 51.1871 30.6628 51.2748 31.0356 51.4446C31.4084 51.6145 31.7403 51.8625 32.0088 52.172V52.172Z" fill="#DBDBDB"/>
<path d="M54.3691 9.84375C54.3691 10.627 54.6803 11.3781 55.2341 11.9319C55.7879 12.4857 56.539 12.7969 57.3223 12.7969V9.84375H54.3691Z" fill="#8F563B"/>
<path d="M51.356 17.3373L49.4487 17.7187L49.178 18.6662L46.1843 17.6683C45.9883 17.603 45.8178 17.4776 45.697 17.31C45.5762 17.1424 45.5112 16.941 45.5112 16.7344V14.7656C45.5112 14.5046 45.6149 14.2542 45.7996 14.0696C45.9842 13.885 46.2345 13.7812 46.4956 13.7812C46.7567 13.7812 47.0071 13.885 47.1917 14.0696C47.3763 14.2542 47.48 14.5046 47.48 14.7656V16.0244L51.1788 17.2573C51.2404 17.2779 51.2997 17.3047 51.356 17.3373V17.3373Z" fill="#DBDBDB"/>
<path d="M48.7883 23.454C48.7929 23.7149 48.6937 23.967 48.5126 24.1548C48.3315 24.3426 48.0832 24.4508 47.8224 24.4556L47.6218 24.4593L47.1173 24.4692C47.0398 24.4704 46.9623 24.4716 46.886 24.4716C44.579 24.4769 42.3189 23.8212 40.3729 22.5822C38.4269 21.3432 36.8766 19.5726 35.9053 17.4801L36.6509 16.7345L36.9622 15.8018C36.9827 15.8081 37.0029 15.8154 37.0225 15.8239C37.0463 15.8328 37.0693 15.8435 37.0914 15.8559C37.1082 15.8626 37.1242 15.8709 37.1394 15.8805C37.1591 15.8916 37.1776 15.9027 37.196 15.915C37.3551 16.0211 37.48 16.1711 37.5553 16.3469C38.334 18.1763 39.6343 19.7357 41.294 20.8306C42.9536 21.9254 44.899 22.507 46.8872 22.5029C46.9512 22.5029 47.0152 22.5017 47.0804 22.5004L47.7855 22.4881C47.8832 22.4854 47.9807 22.4978 48.0746 22.525C48.277 22.5838 48.4553 22.7056 48.5836 22.8726C48.712 23.0397 48.7837 23.2434 48.7883 23.454V23.454Z" fill="#5D62B5"/>
<path d="M51.417 24.6094C51.4168 24.9985 51.3012 25.3788 51.0849 25.7022C50.8686 26.0257 50.5613 26.2777 50.2018 26.4266C49.8423 26.5754 49.4467 26.6143 49.0651 26.5383C48.6835 26.4623 48.3329 26.2749 48.0578 25.9998C47.7827 25.7247 47.5953 25.3741 47.5193 24.9925C47.4433 24.6109 47.4822 24.2153 47.631 23.8558C47.7799 23.4963 48.0319 23.189 48.3554 22.9727C48.6788 22.7564 49.0591 22.6408 49.4482 22.6406C49.9704 22.6406 50.4711 22.848 50.8403 23.2173C51.2096 23.5865 51.417 24.0872 51.417 24.6094Z" fill="#F3AF3E"/>
<path d="M50.2343 24.6094C50.2343 25.0281 50.1008 25.4359 49.8532 25.7736C49.6056 26.1113 49.2568 26.3612 48.8574 26.4871C48.458 26.3612 48.1092 26.1113 47.8616 25.7736C47.614 25.4359 47.4805 25.0281 47.4805 24.6094C47.4805 24.1907 47.614 23.7828 47.8616 23.4452C48.1092 23.1075 48.458 22.8576 48.8574 22.7317C49.2568 22.8576 49.6056 23.1075 49.8532 23.4452C50.1008 23.7828 50.2343 24.1907 50.2343 24.6094V24.6094Z" fill="#EA9D2D"/>
<path d="M58.1094 56.1094C60.284 56.1094 62.0469 54.3465 62.0469 52.1719C62.0469 49.9973 60.284 48.2344 58.1094 48.2344C55.9348 48.2344 54.1719 49.9973 54.1719 52.1719C54.1719 54.3465 55.9348 56.1094 58.1094 56.1094Z" fill="#5D62B5"/>
<path d="M62.0469 52.1719C62.0469 53.2162 61.632 54.2177 60.8936 54.9561C60.1552 55.6945 59.1537 56.1094 58.1094 56.1094C58.7205 54.8868 59.0387 53.5387 59.0387 52.1719C59.0387 50.805 58.7205 49.457 58.1094 48.2344C59.1537 48.2344 60.1552 48.6492 60.8936 49.3876C61.632 50.1261 62.0469 51.1276 62.0469 52.1719Z" fill="#29C3BE"/>
<path d="M43.5421 11.8125V15.1545C43.5414 16.1986 43.1263 17.1998 42.3881 17.9383C41.6499 18.6767 40.6488 19.0921 39.6046 19.0932C39.4964 19.0932 39.3881 19.0883 39.2798 19.0796C38.6149 19.0246 37.975 18.801 37.4206 18.43L36.1052 17.5539C36.0512 17.5179 36.0009 17.4767 35.9551 17.4308L36.6515 16.7344L36.9628 15.8017C36.9833 15.808 37.0034 15.8154 37.0231 15.8238C37.0469 15.8327 37.0699 15.8434 37.092 15.8558C37.1087 15.8625 37.1248 15.8708 37.14 15.8804C37.1597 15.8915 37.1782 15.9026 37.1966 15.9149L38.512 16.7922C38.8085 16.9898 39.1531 17.1032 39.509 17.1204C39.8649 17.1376 40.2188 17.0579 40.533 16.8898C40.8472 16.7218 41.1099 16.4716 41.2931 16.166C41.4763 15.8604 41.5732 15.5108 41.5734 15.1545V11.8125C41.5734 11.5514 41.6771 11.301 41.8617 11.1164C42.0463 10.9318 42.2967 10.8281 42.5578 10.8281C42.8188 10.8281 43.0692 10.9318 43.2538 11.1164C43.4384 11.301 43.5421 11.5514 43.5421 11.8125V11.8125Z" fill="#C3C3C3"/>
</g>
<defs>
<filter id="filter0_d_629_176" x="-2" y="0" width="71" height="71" filterUnits="userSpaceOnUse" color-interpolation-filters="sRGB">
<feFlood flood-opacity="0" result="BackgroundImageFix"/>
<feColorMatrix in="SourceAlpha" type="matrix" values="0 0 0 0 0 0 0 0 0 0 0 0 0 0 0 0 0 0 127 0" result="hardAlpha"/>
<feOffset dy="4"/>
<feGaussianBlur stdDeviation="2"/>
<feComposite in2="hardAlpha" operator="out"/>
<feColorMatrix type="matrix" values="0 0 0 0 0 0 0 0 0 0 0 0 0 0 0 0 0 0 0.25 0"/>
<feBlend mode="normal" in2="BackgroundImageFix" result="effect1_dropShadow_629_176"/>
<feBlend mode="normal" in="SourceGraphic" in2="effect1_dropShadow_629_176" result="shape"/>
</filter>
</defs>
</svg>
